<svg id="BG" xmlns="http://www.w3.org/2000/svg" xmlns:xlink="http://www.w3.org/1999/xlink" viewBox="0 0 2800 2000"><defs><style>.cls-1{fill:none;}.cls-2{fill:#231f20;}.cls-3{opacity:0.03;isolation:isolate;fill:url(#SVGID_1_);}</style><pattern id="SVGID_1_" data-name="SVGID 1 " width="1836.4" height="810.6" patternTransform="translate(-2353 17253.75)" patternUnits="userSpaceOnUse" viewBox="0 0 1836.4 810.6"><rect class="cls-1" width="1836.4" height="810.6"/><rect class="cls-1" width="1836.4" height="810.6"/><rect class="cls-1" width="1836.4" height="810.6"/><path class="cls-2" d="M1409.3,620.8c-3.6,6.3-2.9,13.6.7,19.8,4.2,7.3,11.6,11.6,17.4,17.3,4.1,4,10.7-2.1,6.6-6.1-6.1-6-23.1-15.6-17-26.3,2.9-5-4.8-9.8-7.7-4.7Z"/><path class="cls-2" d="M1443.8,668.1c11.6,8.4,24.8,17.6,39.7,17.7,13.4.2,25.7-7.6,33.6-18,17.8-23.3,4.8-54.5-18.5-68.3-5-2.9-9.7,4.7-4.7,7.7,19.3,11.4,30.6,36.8,15.4,56-6.8,8.7-17.5,14.7-28.7,13.4-12-1.3-22.6-9.4-32.2-16.2-4.6-3.4-9.3,4.3-4.6,7.7Z"/><path class="cls-2" d="M1448.4,583.8c2.9-2.5,5.4-4.5,9.5-3.1,3,1.1,5.6,3.4,8.2,5.3,5.8,4.4,11.7,8.8,17.5,13.3,4.6,3.5,9.3-4.2,4.7-7.7-7.9-6-15.8-13.5-24.7-18.2-8-4.2-14.8-1.8-21.3,3.8-4.4,3.8,1.7,10.4,6.1,6.6Z"/><path class="cls-2" d="M1562.5,590.7c20.2,12.1,43.3,34.1,36.4,60.2-5.6,21.1-26.4,32.1-47.2,31.5a51.81,51.81,0,0,1-31.3-11c-4.5-3.6-9.2,4.1-4.7,7.7,18.3,14.6,45.9,16.2,66.4,5.6a48.84,48.84,0,0,0,21.3-65.7,4.67,4.67,0,0,1-.5-1c-7.9-14.9-21.4-26.3-35.7-34.9-4.9-3-9.6,4.7-4.7,7.6Z"/><path class="cls-2" d="M1552.6,576.1c-2.7,9.5-11.9,15.8-21.8,13.5a18.09,18.09,0,1,1,21.8-13.5c-1.2,5.6,7.4,8.3,8.6,2.6,3.1-14.3-4.8-29.3-19.5-33-14.2-3.6-29.4,5.1-33,19.5s5.1,29.4,19.5,33a27.44,27.44,0,0,0,33-19.5C1562.8,573.1,1554.2,570.5,1552.6,576.1Z"/><circle class="cls-2" cx="1441.4" cy="584.3" r="10.6"/><path class="cls-2" d="M1427.4,618.4a10.66,10.66,0,1,1-7.8-12.9h0a10.61,10.61,0,0,1,7.8,12.9Z"/><path class="cls-2" d="M1879.6,831.7c5.1-8.9,7.6-20,10.8-29.7,2-6,4-12,6.1-18,.4-1.1,1.4-6,2.3-6.6.5-.3,4.3,1.4,4.9,1.6l7.3,2.5,7.4,2.5c1.8.6,5.2,2.9,4.8-.1.2,1.2-.8,3.1-1.1,4.2-1.4,4.8-3,9.5-4.6,14.3-3.5,10.3-7.1,20.6-10.6,31-2,5.8-1.2,10.2-.2,16.3,2,12.9,4.4,25.7,6.7,38.6,1.1,6.2,2.3,12.4,3.4,18.6,1.2,6.6,4.7,17.9-5.5,18.1-4.5.1-9.2-1.9-13.4-3.2-5.5-1.6-10.9-3.3-16.3-5.1-10.4-3.4-20.8-7-31.1-10.8-5.8-2.1-11.7-4.3-17.5-6.4-5.1-1.9-10.9-3.4-15.5-6.5-3.8-2.6-7.3-6.8-5.1-11.6,1.9-4.1,6.1-7.3,9.5-10,17.6-13.9,36.5-26,55.4-38,4.5-2.8.7-10.2-3.8-7.3-18.8,11.9-37.4,24-55.1,37.6-6.5,5-15,11.6-15.1,20.7-.1,8.6,7.3,14.9,14.5,18.2,11.5,5.2,23.9,9,35.7,13.3,11.5,4.1,23,8.1,34.6,11.7,8.9,2.8,20.8,8.4,30.1,4.3,8.7-3.8,9-13.1,7.5-21.2-2.6-14.3-5.3-28.6-7.8-43-1.2-6.9-2.4-13.7-3.5-20.6l-.9-6a11.14,11.14,0,0,0-.2-1.3c-.1-1.2-.2.3-.1,0,3.1-10.1,6.9-20,10.3-29.9,2-6,4.1-12,5.9-18,1.2-3.9,3.5-9.5-.5-12.6-2.2-1.7-5.8-2.3-8.3-3.1l-8.2-2.8c-4.3-1.5-10.9-5.2-15.6-4.2-6.7,1.4-8.4,12.2-10.3,17.7-2.8,8.2-5.5,16.5-8.3,24.7-1.8,5.1-3.4,11.4-5.9,15.8-2.4,4.6,4.6,9,7.3,4.3Z"/><path class="cls-2" d="M1635.5,447.3v18.1a2.5,2.5,0,1,0,5,0V447.3a2.48,2.48,0,0,0-2.5-2.5A2.54,2.54,0,0,0,1635.5,447.3Z"/><path class="cls-2" d="M1630.9,459.4h15.3a2.5,2.5,0,0,0,0-5h-15.3a2.5,2.5,0,0,0,0,5Z"/><path class="cls-2" d="M1624.2,485.7a6.5,6.5,0,1,1-6.5-6.5,3.75,3.75,0,0,1,1.1.1,6.37,6.37,0,0,1,5.4,6.4,1.5,1.5,0,0,0,3,0,9.51,9.51,0,1,0-.6,3.3,8.81,8.81,0,0,0,.6-3.3C1627.3,483.7,1624.3,483.7,1624.2,485.7Z"/><path class="cls-2" d="M1752.7,763.6v18.2a2.5,2.5,0,0,0,5,0V763.7a2.5,2.5,0,0,0-5-.1Z"/><path class="cls-2" d="M1748.1,775.7h15.3a2.5,2.5,0,0,0,0-5h-15.3a2.5,2.5,0,0,0,0,5Z"/><path class="cls-2" d="M1744.5,738.4v10.4a1.46,1.46,0,0,0,1.6,1.3,1.4,1.4,0,0,0,1.3-1.3V738.4a1.46,1.46,0,0,0-2.9-.3Z"/><path class="cls-2" d="M1741.8,745.3h8.8a1.4,1.4,0,1,0,0-2.8h-8.8a1.46,1.46,0,0,0-1.3,1.6A1.39,1.39,0,0,0,1741.8,745.3Z"/><path class="cls-2" d="M1731.4,774a4.61,4.61,0,0,1-4.7,4.6,4.55,4.55,0,0,1-3.6-1.8l-.1-.1-.3-.4-.2-.3s-.2-.5-.1-.2a8.33,8.33,0,0,1-.4-1.5,4,4,0,0,1,.7-2.8,4.69,4.69,0,0,1,6.4-1.6,4.89,4.89,0,0,1,2.3,4.1,1.5,1.5,0,0,0,3,0,7.78,7.78,0,0,0-5-7.2,7.47,7.47,0,0,0-8.4,2.3,7.66,7.66,0,0,0,11.7,9.9,7.42,7.42,0,0,0,1.8-4.9C1734.4,772.1,1731.4,772.1,1731.4,774Z"/><path class="cls-2" d="M1429.6,801.2v10.4a1.4,1.4,0,1,0,2.8,0V801.2a1.4,1.4,0,1,0-2.8,0Z"/><path class="cls-2" d="M1427,808.1h8.8a1.4,1.4,0,0,0,0-2.8H1427a1.4,1.4,0,0,0,0,2.8Z"/><path class="cls-2" d="M1394.4,800.3a7.1,7.1,0,1,1-7.1-7.1,4.87,4.87,0,0,1,1.2.1,7.15,7.15,0,0,1,5.9,7,1.5,1.5,0,0,0,3,0,10.1,10.1,0,1,0-10.1,10.1,12.25,12.25,0,0,0,1.9-.2,10.35,10.35,0,0,0,8.2-9.9C1397.5,798.4,1394.5,798.4,1394.4,800.3Z"/><path class="cls-2" d="M1804.9,575.3l-19.4,17.5c-2.4,2.1-4.7,4.8-7.3,6.6-4,2.7-7,1-9.7-1.9-13.3-14.3-26.3-29.1-39.4-43.7-3.7-4.1-8.8-8.3-11.6-13.1-3-5,1.6-8.1,4.8-11l12.1-11c3.3-3,6.5-6.1,10-9,3.2-2.7,6.6-2.9,9.7.2,5.2,5.2,9.9,10.9,14.8,16.4l25.5,28.2c3.8,4.5,16.6,14.4,10.5,20.8-3,3.1,1.6,8,4.6,4.9,5-5.2,5.4-12.4.7-18-1.7-2-3.6-3.9-5.3-5.9l-24.1-26.7L1760.3,507c-2.5-2.8-5.1-5.2-9-5.9-5.3-.9-9.2,1.9-12.9,5.2-7.9,7.2-16,14.2-23.8,21.5-4.6,4.4-6.3,10.9-2.8,16.6a41.33,41.33,0,0,0,4.7,5.5l45.1,49.9c2.3,2.5,4.4,5.3,7.4,6.8,6.1,2.9,11.5.1,16-4l24.7-22.3C1812.7,577.4,1808.1,572.4,1804.9,575.3Z"/><path class="cls-2" d="M1741.4,568.2l36.2-32.7c.7-.7-.3-1.7-1.1-1.1l-36.2,32.7C1739.6,567.8,1740.7,568.8,1741.4,568.2Z"/><path class="cls-2" d="M1702.6,491.7l23.1,25.6c1.6,1.8,4.3-.9,2.7-2.7L1705.3,489c-1.7-1.8-4.3.8-2.7,2.7Z"/><path class="cls-2" d="M1795,596.2l16.2,18c2.9,3.2,7.8-1.4,4.9-4.6l-16.2-18c-2.9-3.2-7.8,1.4-4.9,4.6Z"/><path class="cls-2" d="M1803.2,635.3l35.3-31.9c5.4-4.9-2.6-12.8-8-8l-35.3,31.9c-5.4,4.9,2.6,12.8,8,8Z"/><path class="cls-2" d="M1731.9,514.5l-6.8,6.2a4.23,4.23,0,0,1-5.9-.3h0l-2.6-2.9a4.23,4.23,0,0,1,.3-5.9h0l6.8-6.2a4.23,4.23,0,0,1,5.9.3l2.6,2.9a4.23,4.23,0,0,1-.3,5.9Z"/><path class="cls-2" d="M1624.6,820.1a35.72,35.72,0,1,1-7.2-50,29.64,29.64,0,0,1,5.2,4.8c11.5,12.7,11.7,31.5,2,45.2-3.3,4.7,4.3,9.4,7.7,4.7,10.7-15.2,11.3-35.9.6-51.3s-30.3-22.9-48.5-17.9a44.69,44.69,0,0,0-7.3,83.6c19.6,9.2,42.3,2.6,55.2-14.3C1635.8,820.2,1628.1,815.5,1624.6,820.1Z"/><path class="cls-2" d="M1562.4,777.4l23.7,17.3a2.49,2.49,0,1,0,2.5-4.3L1565,773.1a2.47,2.47,0,0,0-3.4.9,2.57,2.57,0,0,0,.8,3.4Z"/><path class="cls-2" d="M1595.1,801.3l31.3,22.9a2.49,2.49,0,0,0,2.5-4.3L1597.6,797a2.49,2.49,0,0,0-2.5,4.3Z"/><path class="cls-2" d="M43.2,831.7c5.1-8.9,7.6-20,10.8-29.7,2-6,4-12,6.1-18,.4-1.1,1.4-6,2.4-6.6.5-.3,4.3,1.4,4.9,1.6l7.3,2.5,7.4,2.5c1.8.6,5.2,2.9,4.8-.1.2,1.2-.8,3.1-1.1,4.2-1.4,4.8-3,9.5-4.6,14.3-3.5,10.3-7.1,20.6-10.7,31-2,5.8-1.2,10.2-.2,16.3,2,12.9,4.4,25.7,6.7,38.6,1.1,6.2,2.3,12.4,3.4,18.6,1.2,6.6,4.7,17.9-5.5,18.1-4.5.1-9.2-1.9-13.4-3.2-5.5-1.6-10.9-3.3-16.3-5.1-10.4-3.4-20.8-7-31.1-10.8-5.8-2.1-11.7-4.3-17.5-6.4-5.1-1.9-10.9-3.4-15.5-6.5-3.8-2.6-7.3-6.8-5.1-11.6,1.9-4.1,6.1-7.3,9.5-10,17.6-13.9,36.5-26,55.4-38,4.5-2.8.7-10.2-3.8-7.3C18.3,838-.4,850.1-18,863.7c-6.5,5-15,11.6-15.1,20.7-.1,8.6,7.3,14.9,14.5,18.2,11.5,5.2,23.9,9,35.7,13.3,11.5,4.1,23,8.1,34.6,11.7,8.9,2.8,20.8,8.4,30.1,4.3,8.7-3.8,9-13.1,7.5-21.2-2.6-14.3-5.3-28.6-7.8-43-1.2-6.9-2.4-13.7-3.5-20.6l-.9-6c-.1-.9-.2-1.3-.1-1.3-.1-1.2-.2.3-.1,0,3.1-10.1,6.9-19.9,10.3-29.9,2-6,4.1-12,5.9-18,1.2-3.9,3.5-9.5-.5-12.6-2.2-1.7-5.8-2.3-8.3-3.1l-8.2-2.8c-4.4-1.5-10.9-5.2-15.6-4.2-6.7,1.4-8.4,12.2-10.3,17.7-2.8,8.2-5.5,16.5-8.3,24.7-1.8,5.1-3.4,11.4-5.9,15.8-2.5,4.6,4.5,9,7.2,4.3Z"/><path class="cls-2" d="M66.3,766.8,92,775.3c5,1.7,7.4-6.2,2.4-7.9L84.1,764c-5-1.7-7.4,6.2-2.4,7.9L92,775.3l2.4-7.9-25.7-8.5C63.6,757.2,61.3,765.1,66.3,766.8Z"/><path class="cls-2" d="M242.4,631.4h14.4l-3.7-4v32.4a3.89,3.89,0,0,0,3.7,4h64.6a3.89,3.89,0,0,0,4-3.7V627.7l-4,3.7h36.7a3.89,3.89,0,0,0,4-3.7V563.1a3.89,3.89,0,0,0-3.7-4H321.7l3.7,4V553c0-4.9-7.7-5.2-7.7-.3v10.2a3.89,3.89,0,0,0,3.7,4h36.7l-3.7-4v64.6l4-3.7H321.7a3.89,3.89,0,0,0-4,3.7v32.4l4-3.7H257l3.7,4V627.7a3.89,3.89,0,0,0-3.7-4H242.6c-4.9,0-5.1,7.7-.2,7.7Z"/><path class="cls-2" d="M325.3,539.7v-9.1a3.89,3.89,0,0,0-3.7-4H257a3.89,3.89,0,0,0-4,3.7v32.5l4-3.7H220.3a3.89,3.89,0,0,0-4,3.7v64.6a3.89,3.89,0,0,0,3.7,4h11.1c4.9,0,5.2-7.7.3-7.7h-11l3.7,4V563l-4,3.7h36.7a3.89,3.89,0,0,0,4-3.7V530.6l-4,3.7h64.6l-3.7-4v9.1c-.1,5,7.6,5.2,7.6.3Z"/><path class="cls-2" d="M129.6,663.8v24.7c0,3.2,5,3.2,5,0V663.8C134.6,660.6,129.6,660.6,129.6,663.8Z"/><path class="cls-2" d="M144.4,673.6H119.7c-3.2,0-3.2,5,0,5h24.7C147.6,678.6,147.7,673.6,144.4,673.6Z"/><path class="cls-2" d="M69.7,686.6V697a1.46,1.46,0,0,0,2.9.3V686.7a1.46,1.46,0,1,0-2.9-.3Z"/><path class="cls-2" d="M67,693.5h8.8a1.46,1.46,0,0,0,1.3-1.6,1.4,1.4,0,0,0-1.3-1.3H67a1.46,1.46,0,1,0-.3,2.9A.19.19,0,0,0,67,693.5Z"/><path class="cls-2" d="M196.6,407.8v18.1a2.5,2.5,0,0,0,5,0V407.8a2.5,2.5,0,0,0-5,0Z"/><path class="cls-2" d="M191.9,419.8h15.3a2.5,2.5,0,0,0,0-5H191.9a2.5,2.5,0,0,0,0,5Z"/><path class="cls-2" d="M119.5,630.6a5.25,5.25,0,1,1-5.2-5.3,2.77,2.77,0,0,1,.9.1,5.36,5.36,0,0,1,4.3,5.2,1.5,1.5,0,0,0,3,0,8.45,8.45,0,0,0-5.4-7.8,8.22,8.22,0,0,0-10.6,4.9,8.13,8.13,0,0,0,.7,7.1,8.29,8.29,0,0,0,11.3,2.9,8.05,8.05,0,0,0,4-7.1A1.5,1.5,0,0,0,119.5,630.6Z"/><path class="cls-2" d="M48,457.1a9.6,9.6,0,1,1-9.6-9.6,9.85,9.85,0,0,1,1.7.2,9.62,9.62,0,0,1,7.9,9.4,1.5,1.5,0,0,0,3,0,12.91,12.91,0,0,0-8.2-11.8,12.53,12.53,0,1,0,7.4,16.1A13.17,13.17,0,0,0,51,457C51.1,455.2,48.1,455.2,48,457.1Z"/><path class="cls-2" d="M48.2,527.4v.4h0c0,.2-.1.4-.1.6l-.1.3h0a3.33,3.33,0,0,1-.3.6c-.1.2.1-.1,0,0l-.2.2c-.1.1-.5.4-.2.2-.2.1-.3.2-.5.3l-.2.1c-.3.1.3-.1-.1,0l-.6.2H45c-.2,0,.3.1,0,0a.37.37,0,0,1-.3-.1l-.3-.1c-.1,0-.2-.1,0,0-.2-.1-.3-.2-.5-.3l-.2-.2c-.2-.1.3.2,0,0l-.5-.5h0c-.1-.1-.1-.2-.2-.3s-.3-.6-.2-.3c-.1-.2-.1-.4-.2-.5s0-.2-.1-.2c-.1-.3,0,.3,0-.1v-.5c0-.1.1-.5,0-.1v-.2a.76.76,0,0,1,.2-.5c.1-.3-.2.3,0-.1.1-.1.1-.2.2-.3s.4-.5.1-.3l.4-.4.1-.1.1-.1.6-.3h0l.3-.1.2-.1s.4-.1.1,0,.1,0,.1,0h.6c.3,0-.2-.1.1,0l.7.2c.3.1-.1-.1,0,0s.2.1.4.2l.2.1.2.1h0l.4.4c.3.3-.2-.3,0,0l.2.3c.1.1.1.2.2.3.2.3-.1-.3,0,.1s.1.4.2.7,0,.3,0-.1v.5a1.5,1.5,0,0,0,3,0,5.86,5.86,0,0,0-3.7-5.4,5.73,5.73,0,0,0-6.3,1.7,5.81,5.81,0,0,0,8.8,7.6,5.94,5.94,0,0,0,1.4-3.8,1.54,1.54,0,0,0-1.5-1.5,1.42,1.42,0,0,0-1.6,1.4Z"/><path class="cls-2" d="M249.7,420.6a5.3,5.3,0,1,1-5.3-5.3,2.77,2.77,0,0,1,.9.1,5.27,5.27,0,0,1,4.4,5.2,1.5,1.5,0,0,0,3,0,8.45,8.45,0,0,0-5.4-7.8,8.22,8.22,0,1,0,3.5,13,8.59,8.59,0,0,0,1.9-5.3,1.54,1.54,0,0,0-1.5-1.5A1.63,1.63,0,0,0,249.7,420.6Z"/><path class="cls-2" d="M235,440.8a5.9,5.9,0,1,1-5.9-5.9,3.4,3.4,0,0,1,1,.1,6.07,6.07,0,0,1,4.9,5.8,1.5,1.5,0,0,0,3,0h0a9,9,0,0,0-5.8-8.3,8.89,8.89,0,1,0,5.3,11.4,7.89,7.89,0,0,0,.5-3,1.54,1.54,0,0,0-1.5-1.5A1.45,1.45,0,0,0,235,440.8Z"/><path class="cls-2" d="M-33.2,635.3,2.1,603.4c5.4-4.9-2.6-12.8-7.9-8l-35.4,31.9c-5.4,4.9,2.6,12.8,8,8Z"/><path class="cls-2" d="M370,779l21.8-14.3c2.7-1.8,5.4-3.9,8.2-5.4,4.2-2.2,7.3-.5,9.5,2.9,10.8,16.5,21.6,32.9,32.4,49.4,3,4.6,7.5,9.6,9.6,14.8,2.1,5.4-3.2,7.9-6.8,10.3l-13.8,9.1c-5.2,3.4-14.7,12.7-20.1,5.6-4.6-6-8.4-12.8-12.6-19.1l-20.8-31.7-6.9-10.5c-2.5-3.9-4.6-7.9.2-11.5,3.5-2.6-1.2-7.6-4.6-4.9-9.5,7.3-3.7,16.4,1.3,23.9l19.9,30.3c5.5,8.4,11.1,16.9,16.6,25.3,2.1,3.2,4.2,6,8,7.3,5.2,1.8,9.4-.3,13.6-3.1,8.9-5.8,17.9-11.5,26.7-17.5,5.5-3.7,8.4-10.2,5.3-16.6a51.49,51.49,0,0,0-3.7-5.8l-36.8-56c-1.7-2.5-3.3-5.6-5.7-7.5-5.6-4.3-11.7-2.5-17,1l-27.5,18C363.3,775.3,366.4,781.3,370,779Z"/><path class="cls-2" d="M432.1,795.5l-40.8,26.8a.76.76,0,0,0,.8,1.3l40.8-26.8C433.6,796.3,432.9,795,432.1,795.5Z"/><path class="cls-2" d="M383.5,760l-13.2-20.2c-2.4-3.6-8.4-.5-6,3.1l13.3,20.2C379.9,766.7,385.9,763.6,383.5,760Z"/><path class="cls-2" d="M381.7,719.4l-39.8,26.1c-6,4-.4,13.7,5.7,9.7l39.8-26.1c6-4,.4-13.7-5.7-9.7Z"/><path class="cls-2" d="M1834.8,294.3a48.36,48.36,0,0,1,10.6,10.1c1.5,1.9,4.8,1.6,6.4,0,9.6-10.2,22.7-19.6,37.5-17.5,14.5,2.1,25.4,13.5,29,27.3,1.4,5.6,10.1,3.2,8.7-2.4-4.3-16.8-17.8-30.7-35.2-33.6-18.1-2.9-34.3,7.1-46.2,19.8h6.4a59.38,59.38,0,0,0-12.5-11.5c-4.8-3.3-9.3,4.5-4.7,7.8Z"/><path class="cls-2" d="M1773.5,314.9c4-20.2,22.5-30,42.1-28,5.8.6,5.7-8.4,0-9-23.3-2.4-46,10.8-50.7,34.6-1.2,5.7,7.5,8.1,8.6,2.4Z"/><path class="cls-2" d="M1914.4,341.7c-9.1,17.3-25.8,28.6-41.8,39-9.1,5.9-18.7,11-28,16.6h4.5a308.67,308.67,0,0,1-41.4-26.4c-12.3-9.3-24.2-19-30.9-33.2-2.5-5.2-10.2-.7-7.8,4.5,6.6,14.1,18,24,30.1,33.4a317.84,317.84,0,0,0,40.4,26.8c3.9,2.2,6.8,4.2,10.9,2,3-1.6,5.9-3.3,8.9-5a354,354,0,0,0,30.3-19.4c12.8-9.2,24.9-19.4,32.4-33.6,2.8-5.3-5-9.8-7.6-4.7Z"/><path class="cls-2" d="M1745.8,329.8h50.3l-2.5-2c2.7,11.4,5.3,22.8,8,34.3a2.28,2.28,0,0,0,4.5,0l21-84.9c1-4.1,2-8.1,3-12.2h-4.5c6,29.3,12,58.7,18,88,.8,4.2,1.7,8.4,2.6,12.5.4,2,3.5,2.9,4.3.6,6.5-19.4,12.9-38.9,19.4-58.3l-4.3-.6,10.3,43.4a2.33,2.33,0,0,0,2.6,1.9,2.1,2.1,0,0,0,1.7-1.3c2.7-5.7,5.3-11.4,8-17.1l-1.8,1.4H1947c2.9,0,2.3-4.5-.6-4.5h-60.6a2.18,2.18,0,0,0-1.8,1.4c-2.7,5.7-5.3,11.4-8,17.1l4.3.6c-3.4-14.5-6.9-28.9-10.3-43.4-.5-2-3.5-3-4.3-.6l-19.4,58.3,4.3.6-18-88c-.9-4.2-1.7-8.4-2.6-12.5a2.28,2.28,0,0,0-4.5,0l-21,84.9c-1,4.1-2,8.2-3,12.2h4.5c-2.7-11.4-5.3-22.9-8-34.3a2.39,2.39,0,0,0-2.5-2h-50.3c-2.8-.1-2.2,4.4.6,4.5Z"/><path class="cls-2" d="M1482.8,131.6c5.5-16.3,22.7-27.8,40-24.5,12.6,2.5,22.7,11,29.2,21.8,6.7,11.1,10.3,24.2,11.2,37.1.8,10.5,1.1,25.7-5.7,34.5-4,5.2-11.6,9.3-18.2,7.5-3.7-1-5.6-3.8-8-6.6a60.32,60.32,0,0,0-8.8-8.7c-3.5-2.7-8.9-5.7-13-2.3-4.3,3.6-2.7,10.9-1.6,15.5,2.2,8.8,7.3,21.4-2.9,27.2-5.9,3.3-13.8,2.5-20.1.7-15.4-4.5-29.5-15.5-39.6-27.8-11.2-13.5-19.3-32.1-12.8-49.5,6.8-18.1,28-25.3,45.7-20.8,4.5,1.1,6.6-5.8,2.1-6.9-17-4.4-36.5.1-48,13.9s-11.2,33.1-4.3,49c7.4,17.1,21.5,31.4,37.3,40.9,12.5,7.5,31.4,15.1,44.9,5.7,8.4-5.8,9.3-16.2,7.1-25.4-1.2-4.8-3.4-9.8-3.3-14.8,0-1.5.8-2.3-.4-2,1.1-.3,3,1.2,3.8,1.8,7.2,5,11,14.6,19.9,17,7.2,2,15-.5,20.8-4.9,11.3-8.5,12.8-24.7,12.7-37.8-.2-14.7-3.4-29.7-10.2-42.8-7.6-14.6-20.3-26.5-36.8-29.5-20.8-3.8-41.3,9.8-47.9,29.5-1.5,4.6,5.4,6.7,6.9,2.2Z"/><path class="cls-2" d="M1879.6,21.1c5.1-8.9,7.6-20,10.8-29.7,2-6,4-12,6.1-18,.4-1.1,1.4-6,2.3-6.6.5-.3,4.3,1.4,4.9,1.6l7.3,2.5,7.4,2.5c1.8.6,5.2,2.9,4.8-.1.2,1.2-.8,3.1-1.1,4.2-1.4,4.8-3,9.5-4.6,14.3-3.5,10.4-7.1,20.6-10.6,31-2,5.8-1.2,10.3-.2,16.3,2,12.9,4.4,25.7,6.7,38.6,1.1,6.2,2.3,12.4,3.4,18.6,1.2,6.6,4.7,17.9-5.5,18.1-4.5.1-9.2-1.9-13.4-3.2-5.5-1.6-10.9-3.3-16.3-5.1-10.4-3.4-20.8-7-31.1-10.8-5.8-2.1-11.7-4.3-17.5-6.4-5.1-1.9-10.9-3.4-15.5-6.5-3.8-2.6-7.3-6.8-5.1-11.6,1.9-4.1,6.1-7.3,9.5-10,17.6-13.9,36.5-26,55.4-38,4.5-2.8.7-10.2-3.8-7.3-18.8,11.9-37.4,24-55.1,37.6-6.5,5-15,11.6-15.1,20.7-.1,8.6,7.3,14.9,14.5,18.2,11.5,5.2,23.9,9,35.7,13.3,11.5,4.1,23,8.1,34.6,11.7,8.9,2.8,20.8,8.4,30.1,4.3,8.7-3.8,9-13.1,7.5-21.2-2.6-14.3-5.3-28.6-7.8-43-1.2-6.9-2.4-13.7-3.5-20.6l-.9-6a11.14,11.14,0,0,0-.2-1.3c-.1-1.2-.2.3-.1,0,3.1-10.1,6.9-20,10.3-29.9,2-6,4.1-12,5.9-18,1.2-3.9,3.5-9.6-.5-12.6-2.2-1.7-5.8-2.3-8.3-3.1l-8.2-2.8c-4.3-1.5-10.9-5.2-15.6-4.2-6.7,1.4-8.4,12.2-10.3,17.7-2.8,8.2-5.5,16.5-8.3,24.7-1.8,5.1-3.4,11.4-5.9,15.8-2.4,4.6,4.6,9,7.3,4.3Z"/><path class="cls-2" d="M1836.4,49.4c25.5,8.5,50.8,17.6,76.2,26.6,5,1.8,7.4-6.1,2.4-7.9-25.3-9-50.7-18.1-76.2-26.7C1833.8,39.8,1831.4,47.7,1836.4,49.4Z"/><path class="cls-2" d="M1390.4,18.1V42.7c0,3.2,5,3.2,5,0V18.1C1395.4,14.9,1390.4,14.9,1390.4,18.1Z"/><path class="cls-2" d="M1405.2,27.9h-24.7c-3.2,0-3.2,5,0,5h24.7C1408.4,32.9,1408.4,27.9,1405.2,27.9Z"/><path class="cls-2" d="M1429.6-9.4V1a1.4,1.4,0,0,0,2.8,0V-9.4a1.37,1.37,0,0,0-1.4-1.4c-.7-.1-1.3.6-1.4,1.4Z"/><path class="cls-2" d="M1628,87.1v.4h0a1.42,1.42,0,0,1-.2.6c0,.1-.1.3-.1.4,0-.1.1-.2,0,0a4.35,4.35,0,0,0-.4.7c-.1.3.1-.1,0,0s-.1.2-.2.2l-.3.3a1,1,0,0,0-.5.4.35.35,0,0,0-.2.1h0l-.2.1c-.2.1-.4.1-.6.2h-1.1c-.3,0,.3.1-.1,0l-.4-.1-.4-.1h0l-.6-.3-.3-.2c-.2-.1.2.2-.1,0a1.33,1.33,0,0,1-.5-.6h0l-.2-.3-.1-.2s-.2-.4-.1-.1c-.1-.2-.1-.4-.2-.6a.37.37,0,0,0-.1-.3c-.1-.1,0-.2,0,0v-.8s.1-.5,0-.1l.1-.3a1.42,1.42,0,0,1,.2-.6c.1-.4-.2.2.1-.1.1-.1.1-.2.2-.3s.1-.2.2-.3.2-.3,0,0c.1-.2.3-.3.4-.5l.1-.1c-.2.2.2-.1.2-.1a4.35,4.35,0,0,1,.7-.4h0c.1,0,.3-.1.4-.1l.3-.1s.4-.1.2,0,.2,0,.2,0h.6c.4,0-.2-.1.1,0l.8.2c.4.1-.2-.1.1,0,.1.1.3.1.4.2a.35.35,0,0,1,.2.1l.2.1h0l.5.4c.3.3-.1-.2.1.1l.2.3c.1.1.1.2.2.3.2.3-.1-.2.1.1a2.35,2.35,0,0,1,.2.8h0a1.76,1.76,0,0,0-.1.6,1.5,1.5,0,0,0,3,0,6.51,6.51,0,1,0-1.7,4.3,6.72,6.72,0,0,0,1.6-4.3,1.54,1.54,0,0,0-1.5-1.5A1.45,1.45,0,0,0,1628,87.1Z"/><path class="cls-2" d="M1601.7,261.6V272a1.46,1.46,0,0,0,1.6,1.3,1.4,1.4,0,0,0,1.3-1.3V261.6a1.46,1.46,0,0,0-1.6-1.3A1.4,1.4,0,0,0,1601.7,261.6Z"/><path class="cls-2" d="M1599,268.5h8.8a1.46,1.46,0,0,0,.3-2.9h-9a1.46,1.46,0,1,0-.3,2.9Z"/><path class="cls-2" d="M1588,298v18.1a2.5,2.5,0,0,0,5,0V298a2.5,2.5,0,0,0-5,0Z"/><path class="cls-2" d="M1583.3,310h15.3a2.5,2.5,0,0,0,0-5h-15.3a2.48,2.48,0,0,0-2.5,2.5A2.54,2.54,0,0,0,1583.3,310Z"/><path class="cls-2" d="M1569,288a6.5,6.5,0,1,1-6.5-6.5,3.75,3.75,0,0,1,1.1.1,6.54,6.54,0,0,1,5.4,6.4,1.5,1.5,0,0,0,3,0,9.53,9.53,0,1,0-4.7,8.2,9.35,9.35,0,0,0,4.6-8.1A1.45,1.45,0,1,0,1569,288Z"/><path class="cls-2" d="M1711.2,159.3v10.4a1.46,1.46,0,0,0,2.9.3V159.4a1.46,1.46,0,0,0-1.6-1.3A1.18,1.18,0,0,0,1711.2,159.3Z"/><path class="cls-2" d="M1708.5,166.2h8.8a1.46,1.46,0,0,0,.3-2.9h-9a1.46,1.46,0,1,0-.3,2.9Z"/><path class="cls-2" d="M1740.5,178.5v18.1a2.5,2.5,0,0,0,5,0V178.5a2.5,2.5,0,0,0-5,0Z"/><path class="cls-2" d="M1735.8,190.5h15.3a2.5,2.5,0,0,0,0-5h-15.3a2.5,2.5,0,0,0,0,5Z"/><path class="cls-2" d="M1792.1,156.1a7.7,7.7,0,1,1-7.7-7.7,5.28,5.28,0,0,1,1.3.1,7.72,7.72,0,0,1,6.4,7.6,1.5,1.5,0,0,0,3,0,10.78,10.78,0,1,0-.7,3.7,11.56,11.56,0,0,0,.7-3.7,1.54,1.54,0,0,0-1.5-1.5A1.47,1.47,0,0,0,1792.1,156.1Z"/><path class="cls-2" d="M1765.6,227a4.74,4.74,0,0,1-4.6,4.7,4.9,4.9,0,0,1-3.7-1.8l-.1-.1c-.1-.1-.2-.3-.3-.4l-.2-.3-.1-.2a8.33,8.33,0,0,1-.4-1.5,4.46,4.46,0,0,1,.6-2.8,4.69,4.69,0,0,1,6.4-1.6,4.59,4.59,0,0,1,2.4,4,1.5,1.5,0,0,0,3,0,7.78,7.78,0,0,0-5-7.2,7.47,7.47,0,0,0-8.4,2.3,7.73,7.73,0,0,0,.9,10.8,7.64,7.64,0,0,0,10.8-.9,7.42,7.42,0,0,0,1.8-4.9,1.54,1.54,0,0,0-1.5-1.5A1.48,1.48,0,0,0,1765.6,227Z"/><path class="cls-2" d="M1624.6,9.5a36,36,0,0,1-38.8,12.8,35.88,35.88,0,0,1-25.4-32.5A36.06,36.06,0,0,1,1582.6-45a36.18,36.18,0,0,1,40.2,9.3c11.3,12.7,11.5,31.5,1.8,45.2-3.3,4.7,4.3,9.4,7.7,4.7,10.7-15.2,11.3-35.9.6-51.3S1602.6-60,1584.4-55a45.12,45.12,0,0,0-32.9,39.3,45,45,0,0,0,25.6,44.3c19.6,9.2,42.3,2.6,55.2-14.3C1635.8,9.6,1628.1,4.9,1624.6,9.5Z"/><path class="cls-2" d="M1595.1-9.3l31.3,22.9a2.49,2.49,0,1,0,2.5-4.3l-31.3-22.9a2.47,2.47,0,0,0-3.4.9A2.47,2.47,0,0,0,1595.1-9.3Z"/><path class="cls-2" d="M916.6,699.6a51.17,51.17,0,0,1,10.7,10.1c1.5,1.8,4.8,1.6,6.4,0,9.6-10.2,22.7-19.6,37.5-17.5,14.5,2.1,25.4,13.5,29,27.3,1.4,5.6,10.1,3.2,8.7-2.4-4.3-16.8-17.8-30.7-35.3-33.6-18.1-2.9-34.3,7.1-46.2,19.8h6.4a59.38,59.38,0,0,0-12.5-11.5c-4.8-3.3-9.3,4.5-4.7,7.8Z"/><path class="cls-2" d="M855.3,720.2c4-20.2,22.5-30,42.1-28,5.8.6,5.7-8.4,0-9-23.3-2.4-46,10.8-50.7,34.6-1.2,5.7,7.5,8.1,8.6,2.4Z"/><path class="cls-2" d="M996.2,747c-9.1,17.3-25.8,28.6-41.8,39-9.1,5.9-18.7,11-27.9,16.6h4.6a308.67,308.67,0,0,1-41.4-26.4c-12.3-9.3-24.2-19-30.9-33.3-2.5-5.2-10.2-.7-7.8,4.5,6.6,14,18,24,30.1,33.4a317.84,317.84,0,0,0,40.4,26.8c3.9,2.2,6.8,4.2,10.9,2,3-1.6,5.9-3.3,8.9-5a332.18,332.18,0,0,0,30.3-19.5c12.8-9.2,24.9-19.4,32.4-33.6,2.7-5.1-5.1-9.6-7.8-4.5Z"/><path class="cls-2" d="M827.7,735.1H878l-2.5-2c2.7,11.4,5.3,22.9,8,34.3a2.28,2.28,0,0,0,4.5,0l21-84.9c1-4.1,2-8.2,3-12.2h-4.5l18,88c.9,4.2,1.7,8.4,2.6,12.5.4,2,3.5,2.9,4.3.6l19.4-58.3-4.3-.6c3.4,14.5,6.9,28.9,10.3,43.4a2.33,2.33,0,0,0,2.6,1.9,2.1,2.1,0,0,0,1.7-1.3c2.7-5.7,5.3-11.4,8-17.1l-1.8,1.4h60.6c2.9,0,2.3-4.5-.6-4.5H967.7a2.18,2.18,0,0,0-1.8,1.4l-8,17.2,4.3.6-10.3-43.4c-.5-2-3.5-3-4.3-.6-6.5,19.4-13,38.9-19.4,58.3l4.3.6c-6-29.3-12-58.7-18-88l-2.6-12.5a2.28,2.28,0,0,0-2.6-1.9,2.13,2.13,0,0,0-1.9,1.9l-21,84.9c-1,4.1-2,8.2-3,12.2h4.5c-2.7-11.4-5.3-22.8-8-34.3a2.39,2.39,0,0,0-2.5-2H827.1c-2.9-.1-2.3,4.3.6,4.4Z"/><path class="cls-2" d="M564.6,537c5.5-16.3,22.7-27.8,40-24.5,12.6,2.5,22.7,11,29.2,21.8,6.7,11.1,10.3,24.2,11.2,37.1.8,10.5,1.1,25.7-5.6,34.5-4,5.2-11.6,9.3-18.3,7.5-3.7-1-5.6-3.8-8-6.6a60.32,60.32,0,0,0-8.8-8.7c-3.5-2.7-8.9-5.7-13-2.3-4.3,3.6-2.7,10.9-1.6,15.5,2.2,8.8,7.3,21.4-2.9,27.2-5.9,3.3-13.8,2.5-20.1.7-15.4-4.5-29.5-15.5-39.6-27.8-11.1-13.5-19.2-32.2-12.8-49.6,6.8-18.1,28-25.3,45.7-20.8,4.5,1.1,6.6-5.8,2.1-6.9-17-4.3-36.5.1-48,14s-11.2,33.1-4.3,49c7.4,17.1,21.5,31.4,37.3,41,12.5,7.5,31.4,15.1,45,5.7,8.4-5.8,9.3-16.2,7-25.4-1.2-4.8-3.4-9.8-3.3-14.8,0-1.5.8-2.3-.4-2,1.1-.3,3,1.2,3.8,1.8,7.2,5,10.9,14.6,19.8,17,7.2,2,15-.5,20.8-4.9,11.3-8.5,12.8-24.7,12.7-37.8-.2-14.7-3.4-29.7-10.2-42.8-7.5-14.6-20.2-26.5-36.8-29.5-20.8-3.8-41.3,9.8-47.9,29.5-1.4,4.4,5.5,6.5,7,2.1Z"/><path class="cls-2" d="M491.1,215.5c-3.6,6.3-2.9,13.6.7,19.8,4.2,7.3,11.6,11.6,17.4,17.3,4.1,4,10.7-2.1,6.6-6.1-6.1-6-23.1-15.6-17-26.3,2.9-5-4.8-9.8-7.7-4.7Z"/><path class="cls-2" d="M525.6,262.8c11.6,8.4,24.8,17.6,39.7,17.7,13.4.1,25.7-7.6,33.6-18,17.8-23.3,4.9-54.6-18.5-68.3-5-2.9-9.7,4.7-4.7,7.7,19.3,11.4,30.6,36.8,15.4,56-6.8,8.6-17.5,14.7-28.7,13.4-12-1.4-22.6-9.4-32.1-16.2-4.7-3.4-9.4,4.3-4.7,7.7Z"/><path class="cls-2" d="M530.2,178.5c2.9-2.5,5.4-4.5,9.5-3.1,3,1.1,5.6,3.4,8.2,5.3,5.8,4.4,11.7,8.8,17.5,13.3,4.6,3.5,9.3-4.2,4.7-7.7-7.9-6-15.8-13.5-24.7-18.2-8-4.2-14.8-1.8-21.3,3.8-4.4,3.8,1.7,10.4,6.1,6.6Z"/><path class="cls-2" d="M644.3,185.4c20.2,12.1,43.3,34.1,36.4,60.2-5.6,21.1-26.4,32.1-47.2,31.5a51.81,51.81,0,0,1-31.3-11c-4.5-3.6-9.2,4.1-4.7,7.7,18.3,14.6,45.9,16.1,66.4,5.5a48.79,48.79,0,0,0,21.3-65.7c-.2-.4-.4-.7-.6-1.1-7.9-14.9-21.4-26.3-35.7-34.9-4.8-2.8-9.5,4.8-4.6,7.8Z"/><path class="cls-2" d="M634.4,170.8c-2.7,9.5-11.9,15.8-21.8,13.4a18.13,18.13,0,1,1,21.8-13.4h0c-1.2,5.6,7.4,8.3,8.6,2.6,3.1-14.3-4.8-29.3-19.5-33-14.2-3.6-29.4,5.1-33,19.5s5.1,29.4,19.5,33a27.44,27.44,0,0,0,33-19.5C644.6,167.8,636,165.2,634.4,170.8Z"/><circle class="cls-2" cx="523.23" cy="178.91" r="10.6" transform="translate(-16.98 297.02) rotate(-31.21)"/><path class="cls-2" d="M509.2,213.1a10.62,10.62,0,1,1-7.7-12.9,10.54,10.54,0,0,1,7.7,12.9Z"/><path class="cls-2" d="M961.4,426.4c5.1-8.9,7.6-20,10.8-29.6,2-6,4-12,6.1-18,.4-1.1,1.4-6,2.3-6.6.5-.3,4.3,1.4,4.9,1.6l7.3,2.5,7.4,2.5c1.8.6,5.2,2.9,4.8-.1.2,1.2-.8,3.1-1.1,4.2-1.4,4.8-3,9.5-4.6,14.3-3.5,10.4-7.1,20.6-10.7,31-2,5.8-1.2,10.3-.2,16.3,2,12.9,4.4,25.7,6.7,38.6,1.1,6.2,2.3,12.4,3.4,18.6,1.2,6.6,4.7,17.9-5.5,18.1-4.5.1-9.2-1.9-13.4-3.2-5.5-1.6-10.9-3.3-16.3-5.1-10.4-3.4-20.8-7-31.1-10.8-5.9-2.1-11.7-4.3-17.5-6.4-5.2-1.9-10.9-3.4-15.5-6.5-3.8-2.6-7.3-6.8-5.1-11.5,1.9-4.1,6.1-7.3,9.5-10,17.6-13.9,36.5-26,55.4-38,4.5-2.8.7-10.2-3.8-7.3-18.8,11.9-37.5,24-55.1,37.6-6.5,5-15,11.6-15.1,20.7-.1,8.6,7.3,14.9,14.5,18.2,11.5,5.2,23.9,9,35.7,13.3,11.5,4.1,23,8.1,34.6,11.7,8.9,2.8,20.8,8.4,30.1,4.3,8.6-3.8,9-13.1,7.5-21.2-2.6-14.3-5.3-28.6-7.8-43-1.2-6.9-2.4-13.7-3.5-20.6l-.9-6a11.14,11.14,0,0,0-.2-1.3c-.1-1.2-.2.3-.1,0,3.1-10.1,6.9-19.9,10.3-29.9,2-6,4.1-12,5.9-18,1.2-3.9,3.5-9.5-.5-12.6-2.2-1.7-5.7-2.3-8.3-3.1l-8.2-2.8c-4.4-1.5-10.9-5.2-15.5-4.2-6.7,1.4-8.4,12.2-10.3,17.7-2.8,8.2-5.5,16.5-8.3,24.7-1.8,5.1-3.4,11.4-5.9,15.8s4.6,8.8,7.3,4.1Z"/><path class="cls-2" d="M984.5,361.5l25.7,8.5c5,1.7,7.4-6.2,2.4-7.9l-10.3-3.5c-5-1.7-7.4,6.2-2.4,7.9l10.3,3.4,2.4-7.9-25.7-8.5c-5-1.6-7.4,6.3-2.4,8Z"/><path class="cls-2" d="M918.2,454.7c25.5,8.5,50.8,17.6,76.1,26.7,5,1.8,7.4-6.1,2.4-7.9-25.3-9-50.7-18.1-76.1-26.6C915.6,445.1,913.2,453,918.2,454.7Z"/><path class="cls-2" d="M1160.6,226.1H1175l-3.7-4v32.4a3.89,3.89,0,0,0,3.7,4h64.6a3.89,3.89,0,0,0,4-3.7V222.4l-4,3.7h36.7a3.89,3.89,0,0,0,4-3.7V157.8a3.89,3.89,0,0,0-3.7-4h-36.7l3.7,4V147.6c0-4.9-7.7-5.2-7.7-.3v10.2a3.89,3.89,0,0,0,3.7,4h36.7l-3.7-4v64.6l4-3.7h-36.7a3.89,3.89,0,0,0-4,3.7v32.4l4-3.7h-64.6l3.7,4V222.3a3.89,3.89,0,0,0-3.7-4h-14.4c-4.9.1-5.2,7.8-.3,7.8Z"/><path class="cls-2" d="M1243.5,134.4v-9.1a3.89,3.89,0,0,0-3.7-4h-64.6a3.89,3.89,0,0,0-4,3.7v32.4l4-3.7h-36.7a3.89,3.89,0,0,0-4,3.7V222a3.89,3.89,0,0,0,3.7,4h11.1c4.9,0,5.2-7.7.3-7.7h-11.1l3.7,4V157.7l-4,3.7H1175a3.89,3.89,0,0,0,4-3.7V125.3l-4,3.7h64.6l-3.7-4v9.1c0,5,7.7,5.2,7.6.3Z"/><path class="cls-2" d="M1186,663.3a37.83,37.83,0,0,1-17.2-42.2c2.1-7.5,6.9-14.3,10.8-21,5.9-9.9,11.7-19.9,17.6-29.8,3.6-6.1,6.9-12.5,10.9-18.3,9.6-14,28-19.6,43.9-13.8,15.6,5.7,25.5,21.7,24.2,38.2-.7,9.4-5.6,16.9-10.3,24.7l-17.2,29.2c-4.2,7.1-8.1,14.5-12.7,21.3-10.8,16.7-33,21.4-50,11.7-5-2.9-9.8,4.8-4.7,7.6a47.13,47.13,0,0,0,52-3.2c8.2-6.3,12.9-15.3,18-24l19.5-33.1c4.9-8.3,10.9-16.8,13.2-26.2a46.38,46.38,0,0,0-66.8-52.1c-10.7,5.7-16.8,15-22.7,25-6.4,10.8-12.8,21.7-19.2,32.5-5.3,9-12.3,18.5-15.1,28.8a46.91,46.91,0,0,0,21.1,52.4C1186.2,674,1191,666.3,1186,663.3Z"/><path class="cls-2" d="M1185.9,587.4l30.8,18.2c5,2.9,9.7-4.7,4.7-7.7l-30.8-18.2C1185.6,576.8,1180.9,584.4,1185.9,587.4Z"/><path class="cls-2" d="M1231.6,614.3l23.7,14c5,2.9,9.7-4.7,4.7-7.7l-23.7-14C1231.3,603.7,1226.6,611.3,1231.6,614.3Z"/><path class="cls-2" d="M1047.8,258.5v24.6c0,3.2,5,3.2,5,0V258.5C1052.8,255.3,1047.8,255.3,1047.8,258.5Z"/><path class="cls-2" d="M1062.6,268.3H1038c-3.2,0-3.2,5,0,5h24.7c3.2,0,3.2-5-.1-5Z"/><path class="cls-2" d="M987.9,281.3v10.4a1.46,1.46,0,1,0,2.9.3V281.4a1.46,1.46,0,0,0-1.6-1.3A1.24,1.24,0,0,0,987.9,281.3Z"/><path class="cls-2" d="M985.2,288.2H994a1.4,1.4,0,0,0,0-2.8h-8.8a1.4,1.4,0,0,0,0,2.8Z"/><path class="cls-2" d="M717.4,42V60.1a2.5,2.5,0,1,0,5,0V42a2.48,2.48,0,0,0-2.5-2.5A2.54,2.54,0,0,0,717.4,42Z"/><path class="cls-2" d="M712.7,54.1H728a2.5,2.5,0,0,0,0-5H712.7a2.5,2.5,0,0,0,0,5Z"/><path class="cls-2" d="M1114.8,2.5V20.6a2.5,2.5,0,0,0,5,0V2.5a2.5,2.5,0,0,0-5,0Z"/><path class="cls-2" d="M1110.1,14.5h15.3a2.5,2.5,0,0,0,0-5h-15.3a2.5,2.5,0,0,0,0,5Z"/><path class="cls-2" d="M706.1,80.4a6.5,6.5,0,1,1-6.5-6.5,3.75,3.75,0,0,1,1.1.1,6.55,6.55,0,0,1,5.4,6.4,1.5,1.5,0,0,0,3,0,9.51,9.51,0,1,0-.6,3.3,8.81,8.81,0,0,0,.6-3.3,1.54,1.54,0,0,0-1.5-1.5A1.42,1.42,0,0,0,706.1,80.4Z"/><path class="cls-2" d="M834.5,358.3v18.1a2.5,2.5,0,1,0,5,0V358.3a2.48,2.48,0,0,0-2.5-2.5A2.54,2.54,0,0,0,834.5,358.3Z"/><path class="cls-2" d="M829.9,370.4h15.3a2.5,2.5,0,0,0,0-5H829.9a2.5,2.5,0,0,0,0,5Z"/><path class="cls-2" d="M826.3,333.1v10.4a1.46,1.46,0,1,0,2.9.3V333.2a1.46,1.46,0,1,0-2.9-.3Z"/><path class="cls-2" d="M823.7,340h8.8a1.46,1.46,0,0,0,.3-2.9h-9a1.46,1.46,0,1,0-.3,2.9C823.5,340.1,823.6,340.1,823.7,340Z"/><path class="cls-2" d="M813.2,368.7a4.61,4.61,0,0,1-4.7,4.6,4.55,4.55,0,0,1-3.6-1.8l-.1-.1c-.1-.1-.2-.3-.3-.4l-.2-.3s-.2-.5-.1-.2a8.33,8.33,0,0,1-.4-1.5,4.46,4.46,0,0,1,.6-2.8,4.69,4.69,0,0,1,6.4-1.6,4.78,4.78,0,0,1,2.4,4.1,1.5,1.5,0,1,0,3,0,7.78,7.78,0,0,0-5-7.2,7.47,7.47,0,0,0-8.4,2.3,7.66,7.66,0,1,0,11.7,9.9,7.42,7.42,0,0,0,1.8-4.9,1.54,1.54,0,0,0-1.5-1.5A1.42,1.42,0,0,0,813.2,368.7Z"/><path class="cls-2" d="M472.2,423.4V448c0,3.2,5,3.2,5,0V423.4C477.2,420.2,472.2,420.2,472.2,423.4Z"/><path class="cls-2" d="M487,433.2H462.4c-3.2,0-3.2,5,0,5H487C490.2,438.2,490.2,433.2,487,433.2Z"/><path class="cls-2" d="M511.5,395.9v10.4a1.46,1.46,0,0,0,1.6,1.3,1.4,1.4,0,0,0,1.3-1.3V395.9a1.46,1.46,0,0,0-1.6-1.3,1.32,1.32,0,0,0-1.3,1.3Z"/><path class="cls-2" d="M508.8,402.8h8.8a1.46,1.46,0,1,0,.3-2.9h-9a1.46,1.46,0,1,0-.3,2.9Z"/><path class="cls-2" d="M476.3,395a7.1,7.1,0,1,1-7.1-7.1,4.87,4.87,0,0,1,1.2.1,7.35,7.35,0,0,1,5.9,7,1.5,1.5,0,0,0,3,0,10.1,10.1,0,1,0-18.8,5.1,10.05,10.05,0,0,0,18.7-5.2C479.3,393.1,476.3,393.1,476.3,395Z"/><path class="cls-2" d="M709.7,492.4v.4h0a1.42,1.42,0,0,1-.2.6.76.76,0,0,0-.1.4c0-.1.1-.2,0,0a4.35,4.35,0,0,0-.4.7h0l-.2.2-.3.3a2.19,2.19,0,0,0-.5.3.35.35,0,0,0-.2.1h0l-.2.1c-.2.1-.4.1-.6.2h-1.1c-.2,0,.3.1-.1,0a.6.6,0,0,1-.4-.1.6.6,0,0,0-.4-.1h0l-.6-.3c-.1-.1-.2-.1-.3-.2s.2.2,0,0l-.5-.5h0l-.2-.3-.1-.2s-.2-.4-.1-.1c-.1-.2-.1-.4-.2-.6l-.1-.3h0v-.8s.1-.5,0-.1v-.3a2.07,2.07,0,0,1,.2-.6c.1-.4-.2.2,0-.1l.2-.3.2-.3c0-.1.2-.3,0-.1l.4-.5.2-.1.2-.1a4.35,4.35,0,0,1,.7-.4h0l.4-.1.3-.1s.4-.1.2,0h.8c.3,0-.2-.1.1,0s.5.1.8.2-.2-.1.1,0,.3.1.4.2l.2.1.2.1h0l.5.5c.3.3-.1-.2.1.1.1.1.2.2.2.3l.2.3c.2.3,0-.2,0,.1s.2.5.2.8h0v.6a1.31,1.31,0,0,0,1.4,1.4,1.54,1.54,0,0,0,1.5-1.5h0a2.39,2.39,0,1,1-.1,0,1.54,1.54,0,0,0-1.5-1.5,1.47,1.47,0,0,0-1.3,1.6Z"/><path class="cls-2" d="M683.5,666.9v10.4a1.46,1.46,0,0,0,2.9.3V667a1.43,1.43,0,0,0-1.4-1.4A1.27,1.27,0,0,0,683.5,666.9Z"/><path class="cls-2" d="M680.8,673.8h8.8a1.4,1.4,0,0,0,0-2.8h-8.8a1.4,1.4,0,1,0,0,2.8Z"/><path class="cls-2" d="M669.8,703.2v18.1a2.5,2.5,0,0,0,5,0V703.2a2.48,2.48,0,0,0-2.5-2.5A2.54,2.54,0,0,0,669.8,703.2Z"/><path class="cls-2" d="M665.2,715.3h15.3a2.5,2.5,0,0,0,0-5H665.2a2.5,2.5,0,0,0,0,5Z"/><path class="cls-2" d="M650.8,693.3a6.5,6.5,0,1,1-6.5-6.5,4.1,4.1,0,0,1,1.1.1,6.55,6.55,0,0,1,5.4,6.4,1.5,1.5,0,0,0,3,0,9.48,9.48,0,0,0-18.4-3.2,9.28,9.28,0,0,0,.8,8.1,9.47,9.47,0,0,0,13,3.3,9.35,9.35,0,0,0,4.6-8.1,1.54,1.54,0,0,0-1.5-1.5A1.34,1.34,0,0,0,650.8,693.3Z"/><path class="cls-2" d="M1037.7,225.3a5.3,5.3,0,1,1-5.3-5.3,2.77,2.77,0,0,1,.9.1,5.35,5.35,0,0,1,4.4,5.2,1.5,1.5,0,0,0,3,0,8.45,8.45,0,0,0-5.4-7.8,8.22,8.22,0,1,0,3.5,13,8.59,8.59,0,0,0,1.9-5.3,1.54,1.54,0,0,0-1.5-1.5A1.63,1.63,0,0,0,1037.7,225.3Z"/><path class="cls-2" d="M966.2,51.8a9.55,9.55,0,1,1-9.5-9.6,9.85,9.85,0,0,1,1.7.2,9.63,9.63,0,0,1,7.8,9.4,1.5,1.5,0,0,0,3,0,12.55,12.55,0,1,0-12.6,12.5,19.42,19.42,0,0,0,2.4-.2,12.72,12.72,0,0,0,10.2-12.3,1.5,1.5,0,1,0-3,0Z"/><path class="cls-2" d="M966.4,122.1v.3c0,.2-.1.4-.1.6s-.1.2-.1.3h0a3.33,3.33,0,0,1-.3.6c-.1.2.2-.1,0,0l-.2.2c-.1.1-.5.4-.2.2-.2.1-.3.2-.5.3l-.2.1c-.3.1.3-.1-.1.1-.2,0-.4.1-.6.1h-.9c-.2,0,.4.1,0,0l-.3-.1-.3-.1c-.1,0-.2-.1,0,0-.2-.1-.3-.2-.5-.3l-.2-.2c-.2-.1.2.2,0,0l-.5-.5h0l-.2-.3c0-.1-.3-.6-.2-.3-.1-.2-.1-.4-.2-.5v-.2c-.1-.3,0,.3,0-.1v-.5c0-.1.1-.4,0-.1v-.2a1.42,1.42,0,0,1,.2-.6c.1-.3-.2.3,0-.1,0-.1.1-.2.2-.3s.4-.5.2-.2c.1-.1.2-.3.4-.4l.1-.1.1-.1.6-.3h0l.3-.1h1.2c.3,0-.2-.1.1,0l.7.2c.3.1-.2-.1,0,0s.2.1.3.2l.2.1.2.1h0l.4.4c.3.3-.2-.3,0,0,.1.1.1.2.2.3s.1.2.2.3c.2.3-.1-.3,0,.1s.1.4.2.7,0,.3,0,0v.5a1.5,1.5,0,0,0,3,0,6,6,0,0,0-3.9-5.5,5.73,5.73,0,0,0-6.3,1.7,5.81,5.81,0,0,0,8.8,7.6,5.94,5.94,0,0,0,1.4-3.8,1.54,1.54,0,0,0-1.5-1.5A1.74,1.74,0,0,0,966.4,122.1Z"/><path class="cls-2" d="M1167.9,15.3a5.25,5.25,0,1,1-5.2-5.3,2.77,2.77,0,0,1,.9.1,5.28,5.28,0,0,1,4.3,5.2,1.5,1.5,0,0,0,3,0,8.45,8.45,0,0,0-5.4-7.8,8.22,8.22,0,0,0-10.6,4.9,8.13,8.13,0,0,0,.7,7.1,8.29,8.29,0,0,0,11.3,2.9,8.05,8.05,0,0,0,4-7.1A1.5,1.5,0,1,0,1167.9,15.3Z"/><path class="cls-2" d="M1153.1,35.5a5.91,5.91,0,0,1-5.9,5.9,5.9,5.9,0,0,1,0-11.8,3.4,3.4,0,0,1,1,.1,6,6,0,0,1,4.9,5.8,1.5,1.5,0,0,0,3,0,9,9,0,0,0-5.8-8.3,8.9,8.9,0,0,0-11.4,5.3,9.2,9.2,0,0,0,.7,7.6,8.94,8.94,0,0,0,12.2,3.1,8.81,8.81,0,0,0,4.3-7.6,1.54,1.54,0,0,0-1.5-1.5A1.45,1.45,0,0,0,1153.1,35.5Z"/><path class="cls-2" d="M1093.6,449.8v10.4a1.46,1.46,0,1,0,2.9.3V449.9a1.46,1.46,0,1,0-2.9-.3Z"/><path class="cls-2" d="M1091,456.7h8.8a1.46,1.46,0,0,0,.3-2.9h-9a1.46,1.46,0,1,0-.3,2.9C1090.8,456.8,1090.9,456.8,1091,456.7Z"/><path class="cls-2" d="M1128.9,485.6a8.9,8.9,0,1,1-8.9-8.9,8.6,8.6,0,0,1,1.6.1,9,9,0,0,1,7.3,8.8,1.5,1.5,0,0,0,3,0,11.9,11.9,0,1,0-11.9,11.9,17.85,17.85,0,0,0,2.3-.2,12.08,12.08,0,0,0,9.7-11.7C1132,483.7,1129,483.7,1128.9,485.6Z"/><path class="cls-2" d="M1135.1,449.4a4.74,4.74,0,0,1-4.6,4.7,4.9,4.9,0,0,1-3.7-1.8c.1.1,0-.1,0-.1a4,4,0,0,0-.3-.4l-.2-.3s-.2-.5-.1-.2a6.58,6.58,0,0,1-.4-1.5,4.46,4.46,0,0,1,.6-2.8,4.69,4.69,0,0,1,6.4-1.6,4.58,4.58,0,0,1,2.3,4,1.5,1.5,0,0,0,3,0,7.78,7.78,0,0,0-5-7.2,7.47,7.47,0,0,0-8.4,2.3,7.66,7.66,0,0,0,11.7,9.9,7.42,7.42,0,0,0,1.8-4.9C1138.1,447.4,1135.1,447.4,1135.1,449.4Z"/><path class="cls-2" d="M1152.3,480.7v0a.75.75,0,0,1-.1.5.35.35,0,0,1-.1.2s.2-.3.1-.1a1.38,1.38,0,0,1-.3.4l.1-.1-.1.1-.1.1c-.1.1-.3.2.1,0-.1.1-.2.2-.3.2l-.2.1c-.2.1.4-.1,0,0-.1,0-.3.1-.4.1h-.5c-.2,0,.4.1.1,0h-.2l-.2-.1c-.1,0-.1-.1.1.1-.1-.1-.2-.1-.3-.2l-.2-.1c-.2-.1.3.3.1.1l-.3-.3c.2.1.2.2.1.1s-.1-.1-.1-.2l-.1-.1c-.1-.1-.1-.3,0,.1,0-.1-.1-.3-.1-.4V481c-.1-.3,0,.4,0,0v-.4c0-.1.1-.3,0,.1v-.2c0-.1.1-.3.1-.4.1-.3-.2.3,0,.1l.1-.2c0-.1.1-.1.1-.2s.2-.1-.1.1l.3-.3h0a1.42,1.42,0,0,0,.4-.2c.1-.1-.4.1-.1.1l.2-.1c.1,0,.5-.1.2,0h.5c.3,0-.3-.1-.1,0l.5.1c.3.1-.3-.1-.1,0s.2.1.3.1l.1.1c.3.2-.2-.2,0,0l.3.3c.2.2-.2-.3,0,0l.1.2.1.2c.1.2-.1-.3,0-.1-.1.1-.1.2,0,.4v.1a1.5,1.5,0,0,0,3,0,4.5,4.5,0,0,0-3.1-4.3,4.65,4.65,0,0,0-5,1.3,4.47,4.47,0,0,0,.4,6.4,4.56,4.56,0,0,0,6.4-.4,4.62,4.62,0,0,0,1.1-3,1.5,1.5,0,1,0-3,0h0Z"/><path class="cls-2" d="M1131,754v24.7c0,3.2,5,3.2,5,0V754C1136,750.8,1131,750.8,1131,754Z"/><path class="cls-2" d="M1145.9,763.8h-24.7c-3.2,0-3.2,5,0,5h24.7C1149.1,768.8,1149.1,763.8,1145.9,763.8Z"/><path class="cls-2" d="M1150.5,718.2v10.4a1.46,1.46,0,0,0,2.9.3V718.3a1.46,1.46,0,1,0-2.9-.3Z"/><path class="cls-2" d="M1147.8,725.1h8.8a1.46,1.46,0,1,0,.3-2.9h-9a1.37,1.37,0,0,0-1.4,1.4A1.27,1.27,0,0,0,1147.8,725.1Z"/><path class="cls-2" d="M1125.4,740.1a7.7,7.7,0,1,1-7.7-7.7,5.28,5.28,0,0,1,1.3.1,7.9,7.9,0,0,1,6.4,7.6,1.5,1.5,0,0,0,3,0,10.78,10.78,0,1,0-.7,3.8,12.17,12.17,0,0,0,.7-3.8,1.5,1.5,0,1,0-3,0Z"/><path class="cls-2" d="M1125.6,715.3a4.07,4.07,0,0,1-.8,2.4c-.3.4.1-.1-.1.1l-.3.3-.2.2c-.1.1-.4.3-.1.1-.2.1-.4.3-.6.4l-.3.1h0l-.2.1c-.2.1-.5.1-.7.2s-.4.1-.1,0H1121c-.3,0,.3.1-.1,0l-.4-.1-.4-.1h0l-.6-.3a2.84,2.84,0,0,1-1-.9h0l-.2-.4-.1-.3-.1-.2a1.85,1.85,0,0,1-.2-.7l-.1-.3h0V715s.1-.5,0-.2l.1-.3c.1-.2.1-.5.2-.7.1-.4-.1.2.1-.2.1-.1.1-.3.2-.4l.2-.3s.2-.3.1-.1l.5-.5.2-.2c-.1.1.2-.2.2-.1a2,2,0,0,1,.8-.4c-.1,0-.2.1,0,0l.4-.1.3-.1s.4-.1.2,0,.3,0,.3,0h1c.3.1.6.1.8.2.4.2-.1-.1.1,0s.3.1.4.2l.2.2.2.2h0l.5.5c.3.3-.1-.2.1.1a.52.52,0,0,1,.2.4l.2.4c.1.3,0-.1.1.2a3.09,3.09,0,0,1,.2.8h0a.85.85,0,0,1,0,.7,1.5,1.5,0,0,0,3,0,7.05,7.05,0,0,0-4.6-6.6,6.85,6.85,0,0,0-7.7,2.1,7,7,0,1,0,12.4,4.6A1.55,1.55,0,0,0,1125.6,715.3Z"/><path class="cls-2" d="M793,564.6V575a1.4,1.4,0,1,0,2.8,0V564.6a1.4,1.4,0,0,0-2.8,0Z"/><path class="cls-2" d="M790.3,571.5h8.8a1.46,1.46,0,0,0,1.3-1.6,1.4,1.4,0,0,0-1.3-1.3h-8.8a1.37,1.37,0,0,0-1.4,1.4A1.45,1.45,0,0,0,790.3,571.5Z"/><path class="cls-2" d="M822.3,583.8v18.1a2.5,2.5,0,0,0,5,0V583.8a2.5,2.5,0,0,0-5,0Z"/><path class="cls-2" d="M817.6,595.8h15.3a2.5,2.5,0,0,0,0-5H817.6a2.5,2.5,0,0,0,0,5Z"/><path class="cls-2" d="M873.9,561.4a7.7,7.7,0,1,1-7.7-7.7,5.28,5.28,0,0,1,1.3.1,7.72,7.72,0,0,1,6.4,7.6,1.5,1.5,0,0,0,3,0,10.78,10.78,0,1,0-.7,3.8,12.17,12.17,0,0,0,.7-3.8A1.5,1.5,0,0,0,873.9,561.4Z"/><path class="cls-2" d="M847.4,632.2a4.74,4.74,0,0,1-4.6,4.7,4.9,4.9,0,0,1-3.7-1.8l-.1-.1c-.1-.1-.2-.3-.3-.4s-.1-.2-.2-.3-.2-.5-.1-.2a8.33,8.33,0,0,1-.4-1.5,4,4,0,0,1,.7-2.8,4.69,4.69,0,0,1,6.4-1.6,4.83,4.83,0,0,1,2.3,4,1.5,1.5,0,0,0,3,0,7.78,7.78,0,0,0-5-7.2,7.64,7.64,0,0,0-9.8,4.6,7.66,7.66,0,0,0,11.1,9.2,7.72,7.72,0,0,0,3.7-6.6A1.5,1.5,0,0,0,847.4,632.2Z"/><path class="cls-2" d="M886.7,170l-19.4,17.5c-2.4,2.1-4.7,4.8-7.3,6.6-4,2.7-7,1.1-9.7-1.9-13.3-14.3-26.3-29.1-39.4-43.7-3.7-4.1-8.8-8.3-11.6-13.1-3-5,1.5-8.1,4.8-11l12.2-11c3.3-3,6.5-6.1,10-9,3.2-2.7,6.6-2.9,9.7.2,5.2,5.2,9.9,11,14.8,16.4l25.5,28.2c3.7,4.5,16.5,14.4,10.4,20.8-3,3.1,1.6,8,4.6,4.9,5-5.2,5.4-12.4.7-18-1.7-2-3.6-4-5.3-5.9l-24.1-26.7-20.5-22.7c-2.5-2.8-5.1-5.2-9-5.9-5.3-.9-9.2,1.8-12.9,5.2-7.9,7.2-16,14.2-23.8,21.5-4.6,4.4-6.3,10.9-2.8,16.6a41.33,41.33,0,0,0,4.7,5.5l45.1,49.9c2.2,2.5,4.3,5.3,7.4,6.8,6.1,2.9,11.5.1,16-4l24.6-22.1C894.5,172.1,889.9,167.1,886.7,170Z"/><path class="cls-2" d="M823.2,162.9l36.2-32.7c.7-.6-.3-1.7-1.1-1.1l-36.2,32.7C821.4,162.5,822.5,163.5,823.2,162.9Z"/><path class="cls-2" d="M784.4,86.3c7.7,8.6,15.4,17.1,23.1,25.6,1.6,1.8,4.3-.9,2.7-2.7-7.7-8.5-15.4-17.1-23.1-25.6-1.7-1.7-4.3,1-2.7,2.7Z"/><path class="cls-2" d="M876.8,191,893,209c2.9,3.2,7.8-1.4,4.9-4.6l-16.2-17.9c-2.9-3.3-7.8,1.3-4.9,4.5Z"/><path class="cls-2" d="M885,230l35.3-31.9c5.4-4.9-2.6-12.8-8-8l-35.3,32c-5.4,4.8,2.6,12.8,8,7.9Z"/><path class="cls-2" d="M813.7,109.2l-6.8,6.2a4.23,4.23,0,0,1-5.9-.3l-2.6-2.9a4.23,4.23,0,0,1,.3-5.9h0l6.8-6.2a4.23,4.23,0,0,1,5.9.3h0l2.6,2.9a4.14,4.14,0,0,1-.3,5.9Z"/><path class="cls-2" d="M1288.2,373.6l21.8-14.3c2.7-1.8,5.4-3.9,8.2-5.4,4.2-2.2,7.3-.5,9.5,3q16.2,24.6,32.4,49.4c3,4.6,7.5,9.6,9.6,14.8,2.1,5.4-3.2,7.9-6.8,10.3l-13.9,9.1c-5.2,3.4-14.7,12.7-20.1,5.6-4.6-6-8.4-12.8-12.6-19.1l-20.8-31.7-6.9-10.5c-2.5-3.9-4.6-7.9.2-11.5,3.4-2.6-1.2-7.6-4.6-4.9-9.5,7.3-3.7,16.4,1.3,23.9l19.9,30.3c5.6,8.4,11.1,16.9,16.6,25.3,2.1,3.2,4.2,6.1,8,7.4,5.2,1.8,9.4-.3,13.6-3.1,8.9-5.8,17.9-11.5,26.7-17.5,5.5-3.7,8.4-10.2,5.3-16.6a51.49,51.49,0,0,0-3.7-5.8c-12.3-18.7-24.5-37.3-36.8-56-1.7-2.5-3.3-5.6-5.7-7.5-5.6-4.3-11.7-2.5-17,1l-27.5,18.1C1281.5,370,1284.6,376,1288.2,373.6Z"/><path class="cls-2" d="M1350.3,390.2,1309.5,417c-.8.5,0,1.8.8,1.3l40.8-26.8C1351.8,391,1351,389.7,1350.3,390.2Z"/><path class="cls-2" d="M1377,472l-19-28.9c-1.3-2-4.6-.1-3.2,1.9l19,28.9C1375.1,475.9,1378.3,474,1377,472Z"/><path class="cls-2" d="M1301.7,354.7l-13.3-20.2c-2.4-3.6-8.4-.5-6,3.1l13.3,20.2C1298.1,361.4,1304.1,358.3,1301.7,354.7Z"/><path class="cls-2" d="M1299.9,314.1l-39.8,26.1c-6,4-.4,13.7,5.7,9.7l39.8-26.1c6-3.9.4-13.7-5.7-9.7Z"/><path class="cls-2" d="M1351.4,444.8l7.7-5.1a4.2,4.2,0,0,1,5.8,1.2h0l2.1,3.2a4.2,4.2,0,0,1-1.2,5.8l-7.7,5.1a4.2,4.2,0,0,1-5.8-1.2h0l-2.1-3.2a4.08,4.08,0,0,1,1.2-5.8Z"/><path class="cls-2" d="M706.4,414.8a35.72,35.72,0,1,1-7.2-50,29.64,29.64,0,0,1,5.2,4.8c11.4,12.7,11.6,31.5,2,45.2-3.3,4.7,4.3,9.4,7.7,4.7,10.7-15.2,11.3-35.9.6-51.4a44.71,44.71,0,1,0-55.9,65.7c19.6,9.1,42.3,2.6,55.2-14.3C717.6,414.9,709.9,410.2,706.4,414.8Z"/><path class="cls-2" d="M644.2,372.1l23.7,17.4a2.49,2.49,0,1,0,2.5-4.3l-23.7-17.4a2.47,2.47,0,0,0-3.4.9A2.51,2.51,0,0,0,644.2,372.1Z"/><path class="cls-2" d="M676.9,396c10.4,7.6,20.8,15.3,31.3,22.9a2.49,2.49,0,1,0,2.5-4.3l-31.2-22.9a2.47,2.47,0,0,0-3.4.9,2.36,2.36,0,0,0,.8,3.4Z"/><path class="cls-2" d="M-1.6,294.3A48.36,48.36,0,0,1,9,304.4c1.5,1.9,4.8,1.6,6.4,0,9.6-10.2,22.7-19.6,37.5-17.5,14.5,2.1,25.4,13.5,29,27.3,1.4,5.6,10.1,3.2,8.7-2.4-4.3-16.8-17.8-30.7-35.2-33.6-18.1-2.9-34.3,7.1-46.3,19.7h6.4A59.38,59.38,0,0,0,3,286.4c-4.8-3.2-9.3,4.6-4.6,7.9Z"/><path class="cls-2" d="M78,341.7c-9.1,17.3-25.8,28.6-41.8,39-9.1,5.9-18.7,11-27.9,16.6h4.5a308.67,308.67,0,0,1-41.4-26.4c-12.3-9.3-24.2-19-30.9-33.2-2.5-5.2-10.2-.7-7.8,4.5,6.6,14.1,18,24,30.1,33.4A317.84,317.84,0,0,0,3.2,402.4c3.9,2.2,6.8,4.2,10.9,2,3-1.6,5.9-3.3,8.9-5A354,354,0,0,0,53.3,380c12.9-9.2,24.9-19.4,32.4-33.6,2.7-5.3-5-9.8-7.7-4.7Z"/><path class="cls-2" d="M-90.5,329.8h50.3l-2.5-2c2.7,11.4,5.3,22.8,8,34.3a2.33,2.33,0,0,0,2.6,1.9,2.34,2.34,0,0,0,1.9-1.9l21-84.9c1-4.1,2-8.1,3-12.2h-4.5c6,29.3,12,58.7,18,88,.8,4.2,1.7,8.4,2.6,12.5.4,2,3.5,2.9,4.3.6Q24,337,33.6,307.9l-4.3-.6,10.3,43.4a2.33,2.33,0,0,0,2.6,1.9,2.1,2.1,0,0,0,1.7-1.3c2.7-5.7,5.3-11.4,8-17.1l-1.8,1.4h60.6c2.9,0,2.3-4.5-.6-4.5H49.5a2.18,2.18,0,0,0-1.8,1.4c-2.7,5.7-5.3,11.4-8,17.1l4.3.6c-3.4-14.5-6.8-28.9-10.3-43.4-.5-2-3.5-3-4.3-.6L10,364.4l4.3.6-18-88c-.9-4.2-1.7-8.4-2.6-12.6a2.33,2.33,0,0,0-2.6-1.9,2.34,2.34,0,0,0-1.9,1.9l-21,84.9c-1,4.1-2,8.2-3,12.2h4.5c-2.7-11.4-5.3-22.9-8-34.3a2.39,2.39,0,0,0-2.5-2H-91.1c-2.9.1-2.3,4.5.6,4.6Z"/><path class="cls-2" d="M43.2,21.1c5.1-8.9,7.6-20,10.8-29.7,2-6,4-12,6.1-18,.4-1.1,1.4-6,2.4-6.6.5-.3,4.3,1.4,4.9,1.6l7.3,2.5,7.4,2.5c1.8.6,5.2,2.9,4.8-.1.2,1.2-.8,3.1-1.1,4.2-1.4,4.8-3,9.5-4.6,14.3-3.5,10.3-7.1,20.6-10.6,31-2,5.8-1.2,10.3-.2,16.3,2,12.9,4.4,25.7,6.7,38.6,1.1,6.2,2.3,12.4,3.4,18.6,1.2,6.6,4.7,17.9-5.5,18.1-4.5.1-9.2-1.9-13.4-3.2-5.5-1.6-10.9-3.3-16.3-5.1-10.4-3.4-20.8-7-31.1-10.8C8.4,93.2,2.5,91-3.3,88.9c-5.1-1.9-10.9-3.4-15.5-6.5-3.8-2.6-7.3-6.8-5.1-11.6,1.9-4.1,6.1-7.3,9.5-10,17.6-14,36.5-26.1,55.4-38,4.5-2.8.7-10.2-3.8-7.3C18.4,27.4-.3,39.5-17.9,53.1c-6.5,5-15,11.6-15.1,20.7-.1,8.6,7.3,14.9,14.5,18.2,11.5,5.2,23.9,9,35.7,13.3,11.5,4.1,23,8.1,34.6,11.7,8.9,2.8,20.8,8.4,30.1,4.3,8.7-3.8,9-13.1,7.5-21.2-2.6-14.3-5.3-28.6-7.8-43-1.2-6.9-2.4-13.7-3.5-20.6l-.9-6c-.1-.9-.2-1.3-.1-1.3-.1-1.2-.2.3-.1,0,3.1-10.1,6.9-20,10.3-29.9,2-6,4.1-12,5.9-18,1.2-3.9,3.5-9.6-.5-12.6-2.2-1.7-5.8-2.3-8.3-3.1l-8.2-2.8c-4.4-1.5-10.9-5.2-15.6-4.2C53.9-40,52.2-29.2,50.3-23.7,47.5-15.4,44.8-7.2,42,1c-1.8,5.1-3.4,11.4-5.9,15.8-2.6,4.6,4.4,9,7.1,4.3Z"/><path class="cls-2" d="M0,49.4C25.5,57.9,50.8,67,76.2,76c5,1.8,7.4-6.1,2.4-7.9C53.3,59.1,27.9,50,2.4,41.5-2.7,39.8-5,47.7,0,49.4Z"/><path class="cls-2" d="M267.8,258a37.74,37.74,0,0,1-17.2-42.1c2.1-7.5,6.9-14.3,10.8-21L279,165.1c3.6-6.1,6.9-12.5,10.9-18.4,9.6-14,28-19.6,43.9-13.8,15.6,5.7,25.5,21.7,24.2,38.2-.7,9.4-5.6,16.9-10.3,24.7L330.5,225c-4.2,7.1-8.1,14.5-12.6,21.4C307,263,284.8,267.7,267.8,258c-5-2.9-9.8,4.8-4.7,7.7a47.13,47.13,0,0,0,52-3.2c8.3-6.3,12.9-15.3,18-24,6.5-11,13-22.1,19.5-33.1,4.9-8.3,10.9-16.8,13.2-26.2A46.48,46.48,0,0,0,299,127c-10.7,5.7-16.8,15-22.7,25l-19.2,32.5c-5.3,9-12.3,18.5-15.1,28.8a46.91,46.91,0,0,0,21.1,52.4C268,268.6,272.8,261,267.8,258Z"/><path class="cls-2" d="M267.7,182.1l30.9,18.2c5,2.9,9.7-4.7,4.7-7.7l-30.8-18.2c-5.1-2.9-9.8,4.7-4.8,7.7Z"/><path class="cls-2" d="M313.4,209l23.7,14c5,2.9,9.7-4.7,4.7-7.7l-23.7-14C313.1,198.4,308.4,206,313.4,209Z"/><path class="cls-2" d="M175.4,44.5V54.9a1.46,1.46,0,0,0,2.9.3V44.6a1.46,1.46,0,0,0-2.9-.3Z"/><path class="cls-2" d="M172.8,51.4h8.8a1.46,1.46,0,0,0,1.3-1.6,1.4,1.4,0,0,0-1.3-1.3h-8.8a1.37,1.37,0,0,0-1.4,1.4,1.34,1.34,0,0,0,1.4,1.5Z"/><path class="cls-2" d="M210.7,80.3a9,9,0,1,1-8.9-9,8.6,8.6,0,0,1,1.6.1,9.19,9.19,0,0,1,7.3,8.9,1.5,1.5,0,0,0,3,0,11.9,11.9,0,1,0-11.9,11.9,17.85,17.85,0,0,0,2.3-.2,12.08,12.08,0,0,0,9.7-11.7,1.54,1.54,0,0,0-1.5-1.5A1.56,1.56,0,0,0,210.7,80.3Z"/><path class="cls-2" d="M216.9,44.1a4.74,4.74,0,0,1-4.6,4.7,4.9,4.9,0,0,1-3.7-1.8c.1.1,0-.1-.1-.1a4,4,0,0,0-.3-.4c-.1-.1-.1-.2-.2-.3s-.2-.5-.1-.2a10.26,10.26,0,0,1-.4-1.4,4.46,4.46,0,0,1,.6-2.8,4.69,4.69,0,0,1,6.4-1.6,4.22,4.22,0,0,1,2.4,3.9,1.5,1.5,0,0,0,3,0,7.78,7.78,0,0,0-5-7.2,7.47,7.47,0,0,0-8.4,2.3,7.66,7.66,0,0,0,11.7,9.9,7.42,7.42,0,0,0,1.8-4.9C219.9,42.1,216.9,42.1,216.9,44.1Z"/><path class="cls-2" d="M234.1,75.4v.2c0,.1-.1.3-.1.4a.35.35,0,0,1-.1.2c0,.1.2-.3,0-.1s-.1.3-.2.4l.1-.1c-.1.1-.1.1-.1.2l-.1.1c-.1.1-.3.1.1,0-.1.1-.2.1-.3.2l-.1.1c-.2.1.4-.1,0,0l-.4.1h-.5c-.2,0,.4.1.1,0a.37.37,0,0,1-.3-.1l-.2-.1c-.1,0-.1-.1.1.1-.1-.1-.2-.1-.4-.2s-.1-.1-.2-.1.3.3.1.1l-.3-.3c.2.1.2.2.1.1l-.1-.2a.1.1,0,0,0-.1-.1c-.1-.1-.1-.3,0,.1,0-.1-.1-.3-.1-.4v-.2c-.1-.3,0,.4,0,0v-.4c0-.1.1-.3,0,.1v-.2c0-.1.1-.3.1-.4.1-.3-.2.3,0,.1l.1-.2c0-.1.1-.1.1-.2s.2-.1-.1.1l.3-.3c.1-.1.3-.2,0,0h0c.1-.1.3-.1.4-.2s-.4.1-.1.1l.2-.1c.1,0,.5-.1.2-.1h.5c.3,0-.3-.1-.1,0s.3.1.5.1-.3-.1-.1,0l.3.1.1.1c.3.2-.2-.2,0,0l.3.3c.1.1-.2-.3,0,0l.1.2.1.2c.1.2-.1-.3,0-.1a.76.76,0,0,0,.1.4c0,.1-.1.1-.1-.2v.3a1.5,1.5,0,0,0,3,0,4.81,4.81,0,0,0-3-4.5,4.54,4.54,0,1,0,1.9,7.3,4.62,4.62,0,0,0,1.1-3,1.54,1.54,0,0,0-1.5-1.5,1.48,1.48,0,0,0-1.4,1.6Z"/><path class="cls-2" d="M212.8,348.7v24.6c0,3.2,5,3.2,5,0V348.7C217.8,345.5,212.8,345.5,212.8,348.7Z"/><path class="cls-2" d="M227.7,358.5H203c-3.2,0-3.2,5,0,5h24.6c3.2,0,3.3-5,.1-5Z"/><path class="cls-2" d="M232.3,312.9v10.4a1.46,1.46,0,1,0,2.9.3V313a1.46,1.46,0,0,0-1.6-1.3A1.24,1.24,0,0,0,232.3,312.9Z"/><path class="cls-2" d="M229.6,319.8h8.8a1.46,1.46,0,0,0,1.3-1.6,1.4,1.4,0,0,0-1.3-1.3h-8.8a1.46,1.46,0,1,0-.3,2.9Z"/><path class="cls-2" d="M207.2,334.8a7.7,7.7,0,1,1-7.7-7.7,6.6,6.6,0,0,1,1.4.1,7.91,7.91,0,0,1,6.3,7.6,1.5,1.5,0,0,0,3,0,10.7,10.7,0,1,0-10.7,10.7,12.31,12.31,0,0,0,2-.2,10.9,10.9,0,0,0,8.7-10.5A1.5,1.5,0,0,0,207.2,334.8Z"/><path class="cls-2" d="M207.5,310a4.07,4.07,0,0,1-.8,2.4c-.3.4.1-.1-.1.1l-.2.3-.2.2s-.4.3-.1.1c-.2.1-.4.3-.6.4l-.3.1h0l-.2.1c-.2.1-.5.1-.7.2s-.4.1-.1,0H203c-.3,0,.3.1-.1,0l-.4-.1-.4-.1h0l-.6-.3a2.84,2.84,0,0,1-1-.9h0a.52.52,0,0,1-.2-.4.37.37,0,0,1-.1-.3l-.1-.2a1.85,1.85,0,0,1-.2-.7.37.37,0,0,0-.1-.3h0v-.9s.1-.5,0-.2a.37.37,0,0,1,.1-.3,2.54,2.54,0,0,1,.2-.7c.1-.4-.1.2.1-.2.1-.1.1-.3.2-.4l.2-.3s.2-.3.1-.1c.2-.2.3-.4.5-.5l.2-.2.2-.1a2,2,0,0,1,.8-.4c-.1,0-.2.1,0,0l.4-.1.3-.1s.4-.1.2,0h1.3a2.92,2.92,0,0,1,.9.2c.3.1-.1-.1.1,0s.3.2.4.2l.2.1.2.2h0l.5.5c.3.3-.1-.2.1.1a.52.52,0,0,1,.2.4c.1.1.1.3.2.4s0-.1.1.2a2.92,2.92,0,0,1,.2.9h0a1,1,0,0,0-.2.7c0,1.8,3,1.8,3-.1a7.05,7.05,0,0,0-4.6-6.6,6.85,6.85,0,0,0-7.7,2.1,7,7,0,1,0,12.4,4.6C210.5,308.1,207.5,308.1,207.5,310Z"/><path class="cls-2" d="M370-31.7l21.9-14.4c2.7-1.8,5.4-3.9,8.2-5.4,4.2-2.2,7.3-.5,9.5,2.9Q425.8-23.85,442,.8c3,4.6,7.5,9.6,9.6,14.8,2.1,5.4-3.2,7.9-6.8,10.3L431,35.1c-5.2,3.4-14.7,12.7-20.1,5.6-4.6-6-8.4-12.8-12.6-19.1L377.5-10.2l-6.9-10.5c-2.5-3.9-4.6-7.9.2-11.5,3.5-2.7-1.2-7.6-4.6-4.9-9.5,7.3-3.7,16.4,1.3,23.9l19.8,30.3,16.6,25.3c2.1,3.2,4.2,6.1,8,7.3,5.2,1.8,9.4-.3,13.6-3.1,8.9-5.8,17.9-11.5,26.7-17.5,5.5-3.7,8.4-10.2,5.3-16.6a51.49,51.49,0,0,0-3.7-5.8L417-49.3c-1.7-2.5-3.3-5.6-5.7-7.5-5.6-4.3-11.7-2.5-17,1l-27.5,18C363.3-35.3,366.4-29.3,370-31.7Z"/><path class="cls-2" d="M432.1-15.1,391.3,11.7a.76.76,0,0,0,.8,1.3l40.8-26.8c.7-.5,0-1.8-.8-1.3Z"/><path class="cls-2" d="M458.8,66.6c-6.3-9.6-12.6-19.2-19-28.9-1.3-2-4.6-.1-3.2,1.9,6.3,9.6,12.6,19.2,19,28.9C456.8,70.5,460.1,68.7,458.8,66.6Z"/><path class="cls-2" d="M433.2,39.5l7.7-5a4.2,4.2,0,0,1,5.8,1.2h0l2.1,3.2a4.2,4.2,0,0,1-1.2,5.8h0l-7.7,5a4.2,4.2,0,0,1-5.8-1.2L432,45.3A4.08,4.08,0,0,1,433.2,39.5Z"/></pattern></defs><title>hBG</title><rect class="cls-3" width="2800" height="2000"/></svg>